<?xml version="1.0" encoding="UTF-8"?>
<svg id="Warstwa_2" data-name="Warstwa 2" xmlns="http://www.w3.org/2000/svg" viewBox="0 0 154.19 85.07">
  <defs>
    <style>
      .cls-1 {
        fill: #164194;
      }

      .cls-2 {
        fill: #1d1d1b;
      }

      .cls-3 {
        fill: #fff;
      }

      .cls-4 {
        fill: #ffed00;
      }

      .cls-5 {
        fill: #e30613;
      }
    </style>
  </defs>
  <g id="Warstwa_5" data-name="Warstwa 5">
    <g>
      <g>
        <path class="cls-2" d="M147.8,55.37c.04-.28.11-.56.2-.83.1-.27.24-.51.41-.72.18-.21.4-.38.66-.51.26-.13.56-.19.9-.19s.62.06.86.18c.24.12.44.28.61.48.17.2.29.44.38.72.09.28.13.57.13.88h-4.15ZM145.77,58.37c.2.61.5,1.14.9,1.59.41.45.92.8,1.55,1.05.63.25,1.37.38,2.22.38.33,0,.66-.02.98-.06.32-.04.62-.08.9-.14.28-.06.52-.12.74-.18.22-.07.38-.13.51-.19l-.29-1.83c-.26.11-.61.22-1.06.31-.45.1-.94.15-1.48.15-.92,0-1.63-.21-2.11-.64-.49-.42-.76-1.02-.82-1.8h6.37c.01-.12.02-.26.03-.42,0-.15,0-.29,0-.41,0-1.64-.37-2.87-1.12-3.69-.75-.82-1.78-1.24-3.11-1.24-.57,0-1.12.11-1.66.32-.54.22-1.02.54-1.44.96-.42.42-.75.96-1.01,1.6-.25.64-.38,1.38-.38,2.23,0,.73.1,1.39.29,2M143.53,47.65c-.27-.25-.59-.37-.96-.37s-.71.12-.98.37c-.27.25-.41.58-.41,1.01s.14.75.41,1c.27.25.6.37.98.37s.69-.12.96-.37c.27-.25.41-.58.41-1s-.13-.77-.41-1.01M143.7,51.49h-2.23v9.65h2.23v-9.65ZM133.67,46.82l-2.23.37v13.95h2.23v-4.43c.33.25.67.55,1.02.9.34.35.68.72,1.01,1.12.33.39.64.8.93,1.22.29.42.55.82.77,1.2h2.58c-.22-.42-.5-.87-.83-1.37-.33-.49-.69-.98-1.07-1.48-.38-.49-.77-.96-1.18-1.39-.41-.44-.79-.81-1.16-1.12.69-.7,1.37-1.42,2.05-2.16.68-.74,1.33-1.45,1.94-2.14h-2.64c-.2.23-.43.51-.71.82-.28.31-.57.64-.88.98-.31.34-.62.68-.94,1.02-.32.34-.62.65-.9.95v-8.44ZM124.07,59.35c-.46-.12-.86-.25-1.19-.39l-.39,1.86c.21.09.57.2,1.09.34.52.14,1.2.21,2.05.21,1.27,0,2.24-.24,2.92-.71.68-.47,1.02-1.17,1.02-2.09,0-.43-.06-.8-.17-1.11-.11-.31-.29-.58-.53-.82-.24-.24-.54-.45-.91-.65-.37-.19-.82-.38-1.35-.58-.32-.11-.59-.22-.81-.32-.22-.1-.4-.21-.53-.31-.14-.1-.23-.22-.29-.34-.05-.12-.08-.26-.08-.42,0-.32.14-.56.42-.71.28-.15.65-.23,1.11-.23.5,0,.95.05,1.33.14.38.09.69.19.94.3l.41-1.81c-.26-.1-.64-.2-1.16-.3-.52-.1-1.06-.16-1.63-.16-1.12,0-2,.26-2.66.77-.65.51-.98,1.21-.98,2.09,0,.46.07.84.21,1.15.14.31.34.58.58.8.25.22.54.41.88.58s.71.32,1.12.47c.66.25,1.14.47,1.43.68.29.21.43.47.43.79,0,.35-.13.59-.41.73-.27.14-.7.21-1.29.21s-1.12-.06-1.58-.18M120.44,47.65c-.27-.25-.59-.37-.96-.37s-.71.12-.98.37c-.27.25-.41.58-.41,1.01s.14.75.41,1c.27.25.6.37.98.37s.69-.12.96-.37c.27-.25.41-.58.41-1s-.13-.77-.41-1.01M119.71,63.67c.6-.6.89-1.53.89-2.79v-9.39h-2.23v9.36c0,.6-.1,1.05-.31,1.36-.21.3-.57.45-1.09.45-.38,0-.71-.04-.98-.13l-.3,1.83c.22.09.48.14.77.18.29.03.51.05.67.05,1.12,0,1.98-.3,2.58-.9M109.81,55.37c.04-.28.1-.56.2-.83.1-.27.24-.51.42-.72.18-.21.4-.38.65-.51.26-.13.56-.19.9-.19s.62.06.86.18c.24.12.44.28.61.48.17.2.29.44.38.72.09.28.13.57.13.88h-4.15ZM107.78,58.37c.2.61.5,1.14.91,1.59.41.45.92.8,1.55,1.05.63.25,1.37.38,2.22.38.33,0,.66-.02.98-.06.32-.04.62-.08.89-.14.28-.06.52-.12.74-.18.22-.07.38-.13.51-.19l-.29-1.83c-.26.11-.61.22-1.06.31-.45.1-.95.15-1.49.15-.92,0-1.63-.21-2.11-.64-.49-.42-.76-1.02-.82-1.8h6.37c.01-.12.02-.26.03-.42,0-.15.01-.29.01-.41,0-1.64-.37-2.87-1.12-3.69-.74-.82-1.78-1.24-3.11-1.24-.57,0-1.12.11-1.66.32-.54.22-1.02.54-1.44.96-.42.42-.75.96-1.01,1.6-.25.64-.38,1.38-.38,2.23,0,.73.1,1.39.29,2M105.59,54.23c-.23-.62-.55-1.15-.98-1.59-.42-.44-.94-.77-1.54-1.01-.6-.23-1.29-.35-2.05-.35s-1.44.05-2.1.17c-.67.11-1.23.23-1.68.35v12.75h2.23v-3.75c.25.14.56.26.94.37.38.11.8.17,1.25.17.68,0,1.28-.12,1.82-.37.54-.25.98-.59,1.34-1.03.36-.44.63-.97.82-1.59.19-.61.29-1.29.29-2.03s-.11-1.47-.34-2.09M103.08,58.6c-.38.55-.97.83-1.78.83-.37,0-.72-.06-1.04-.18-.33-.12-.59-.24-.78-.38v-5.52c.22-.06.45-.1.67-.12.23-.02.45-.03.65-.03,1,0,1.72.28,2.17.83.45.55.67,1.33.67,2.33,0,.93-.19,1.68-.56,2.23M92.28,58.62c-.41.57-.99.85-1.73.85s-1.31-.28-1.72-.85c-.41-.57-.62-1.33-.62-2.31s.21-1.72.62-2.28c.41-.56.99-.84,1.72-.84s1.31.28,1.73.84c.41.56.62,1.32.62,2.28s-.21,1.74-.62,2.31M94.85,54.23c-.23-.62-.54-1.15-.95-1.6-.41-.44-.9-.78-1.47-1.02-.57-.24-1.2-.36-1.87-.36s-1.3.12-1.86.36c-.57.24-1.06.58-1.47,1.02-.41.44-.73.98-.96,1.6-.23.62-.34,1.31-.34,2.08s.11,1.46.34,2.09c.23.63.54,1.16.95,1.6.41.44.89.79,1.46,1.03.57.25,1.19.37,1.88.37s1.32-.12,1.89-.37c.57-.24,1.06-.59,1.47-1.03.41-.44.72-.98.94-1.6.22-.63.33-1.32.33-2.09s-.11-1.45-.34-2.08M85.2,51.62c-.11-.04-.26-.08-.44-.12-.18-.04-.38-.08-.57-.11-.2-.03-.39-.06-.59-.07-.2-.02-.37-.03-.52-.03-.79,0-1.5.07-2.15.21-.65.14-1.18.29-1.61.45v9.19h2.23v-7.73c.11-.04.3-.08.58-.13.28-.05.54-.07.78-.07.43,0,.81.03,1.14.1.33.07.58.13.76.19l.39-1.88ZM76.78,51.49h-2.23v7.81c-.15.04-.37.07-.67.09-.3.02-.59.04-.86.04-.75,0-1.28-.22-1.58-.66-.3-.44-.45-1.18-.45-2.21v-5.06h-2.23v5.41c0,.65.07,1.25.2,1.8.14.55.36,1.02.67,1.41.31.39.73.7,1.26.92.52.22,1.17.33,1.95.33.83,0,1.58-.06,2.27-.17.69-.12,1.25-.23,1.68-.34v-9.36ZM67.14,61.14v-1.97h-6.33v-3.75h5.24v-1.94h-5.24v-3.16h5.89v-1.97h-8.21v12.79h8.66Z"/>
        <path class="cls-2" d="M129.05,34.1c.04-.28.1-.56.2-.83.1-.27.24-.51.41-.72.18-.21.4-.38.65-.51.26-.13.56-.19.9-.19s.62.06.86.18c.24.12.44.28.61.48.17.2.29.44.38.72.09.28.13.57.13.88h-4.15ZM127.02,37.1c.2.61.5,1.14.91,1.59.41.45.92.8,1.55,1.05.63.25,1.37.38,2.21.38.33,0,.66-.02.98-.06.32-.04.62-.08.9-.14.28-.05.52-.12.74-.18.22-.07.39-.13.51-.19l-.3-1.83c-.26.11-.61.22-1.06.31-.45.1-.94.15-1.49.15-.92,0-1.63-.21-2.11-.64-.49-.42-.76-1.02-.82-1.8h6.37c.01-.12.02-.26.03-.42,0-.15,0-.29,0-.42,0-1.64-.37-2.87-1.12-3.69-.74-.82-1.78-1.24-3.11-1.24-.57,0-1.12.11-1.66.32-.54.22-1.02.53-1.44.96-.42.42-.75.96-1.01,1.6-.25.64-.38,1.38-.38,2.23,0,.73.1,1.39.29,2M125.44,30.22h-7.33v1.86h4.45c-.33.39-.71.86-1.14,1.38-.42.53-.85,1.09-1.28,1.67-.43.58-.85,1.17-1.25,1.74-.41.58-.74,1.11-1.01,1.61v1.38h7.68v-1.86h-4.98c.37-.57.78-1.16,1.25-1.78.46-.62.92-1.22,1.38-1.79.45-.57.88-1.09,1.28-1.56.4-.47.72-.83.97-1.09v-1.57ZM111.12,38.09c-.46-.12-.86-.25-1.19-.39l-.39,1.86c.21.09.57.2,1.09.34.52.14,1.2.21,2.05.21,1.27,0,2.24-.24,2.92-.71.68-.47,1.02-1.17,1.02-2.09,0-.43-.06-.8-.17-1.11-.11-.31-.29-.58-.53-.82-.24-.24-.54-.46-.91-.65-.37-.19-.82-.38-1.35-.58-.32-.11-.59-.22-.81-.32-.22-.1-.4-.21-.54-.31-.13-.1-.23-.22-.29-.34-.06-.12-.08-.26-.08-.42,0-.32.14-.56.42-.71.28-.15.65-.23,1.11-.23.5,0,.95.05,1.33.14.38.09.7.19.94.3l.41-1.81c-.26-.1-.65-.2-1.16-.3-.52-.1-1.06-.16-1.62-.16-1.12,0-2.01.26-2.66.77-.65.51-.98,1.21-.98,2.09,0,.46.07.84.21,1.15.14.31.33.58.58.8.25.22.54.42.88.58.34.17.71.32,1.12.47.66.25,1.14.47,1.43.68.29.21.43.47.43.79,0,.35-.14.59-.41.73-.27.14-.7.21-1.29.21s-1.12-.06-1.58-.18M107.64,30.22h-2.23v7.81c-.15.04-.37.07-.67.09-.3.02-.59.04-.86.04-.75,0-1.28-.22-1.58-.66-.3-.44-.45-1.18-.45-2.21v-5.06h-2.23v5.41c0,.65.07,1.25.2,1.8.13.55.36,1.02.67,1.41.31.39.73.7,1.26.92.52.22,1.17.33,1.95.33.83,0,1.58-.06,2.27-.18.69-.12,1.25-.23,1.68-.34v-9.36ZM97.16,25.55l-2.23.37v4.63c-.26-.14-.57-.26-.92-.37-.36-.11-.77-.17-1.24-.17-.69,0-1.3.12-1.83.36-.53.24-.98.58-1.35,1.03-.37.44-.65.98-.84,1.6-.19.62-.29,1.31-.29,2.08s.11,1.47.34,2.09c.23.62.55,1.15.98,1.59.42.44.94.77,1.54,1.01.6.23,1.29.35,2.05.35s1.44-.06,2.11-.17c.67-.11,1.23-.23,1.67-.37v-14.03ZM91.32,32.77c.38-.55.97-.83,1.78-.83.37,0,.72.06,1.04.18.33.12.59.24.78.38v5.54c-.16.04-.37.07-.62.1-.25.03-.56.05-.91.05-.82,0-1.47-.28-1.94-.84-.47-.56-.7-1.33-.7-2.32s.19-1.7.56-2.25M78.46,39.88h2.23v-7.79c.15-.02.38-.06.68-.09.31-.04.6-.06.89-.06.38,0,.7.05.97.16.26.11.47.27.63.5.15.23.26.52.33.89.07.36.1.8.1,1.32v5.08h2.23v-5.43c0-.65-.06-1.25-.19-1.8-.13-.55-.35-1.02-.67-1.4-.31-.39-.74-.69-1.26-.9-.53-.22-1.19-.32-1.97-.32-.84,0-1.6.05-2.29.17-.69.11-1.25.23-1.68.35v9.34ZM75.93,30.22h-2.23v7.81c-.15.04-.37.07-.67.09-.3.02-.59.04-.86.04-.75,0-1.28-.22-1.58-.66-.3-.44-.45-1.18-.45-2.21v-5.06h-2.23v5.41c0,.65.07,1.25.2,1.8.14.55.36,1.02.67,1.41.31.39.73.7,1.26.92.52.22,1.17.33,1.95.33.82,0,1.58-.06,2.27-.18.69-.12,1.25-.23,1.68-.34v-9.36ZM60.81,39.88v-5.57h5.11v-1.97h-5.11v-3.27h5.76v-1.97h-8.08v12.79h2.33Z"/>
      </g>
      <g>
        <polygon class="cls-1" points="42.54 85.07 0 77.09 0 13.29 42.54 0 42.54 85.07"/>
        <path class="cls-4" d="M0,61.76v-16.56c2.14.58,4.52.85,6.1-.09,3.43-2.05,8.64-8.33,8.64-8.33,0,0-2.75,6.77-1.71,9.25,1.09,2.64,7.59,2.78,7.59,2.78,0,0-7.35,4.47-10.77,7.43-3.52,3.02-5.96,14.13-5.96,14.13,0,0-1.7-7.12-3.89-8.61"/>
        <path class="cls-5" d="M42.54,32.54c-1.47.93-2.91,1.66-4,1.87-3.42.66-7.08-3.27-7.08-3.27,0,0,.86,5.74-1.29,9.28-2.26,3.73-9.54,8.39-9.54,8.39,0,0,8.04-1.56,9.61.94,1.66,2.68,1.89,12,1.89,12,0,0,4.1-11.19,7.82-12.72.73-.31,1.63-.59,2.6-.87v-15.63Z"/>
        <path class="cls-3" d="M14.74,36.78s4.11-6.44,3.86-8.73c-.24-2.18-4.51-2.96-4.51-2.96,0,0,5.58-1.37,8.02-3.56,2.35-2.12,4.4-6.5,4.4-6.5,0,0,.52,3.63,2.61,4.15,2.16.54,7.91-1.78,7.91-1.78,0,0-4.54,4.3-6.33,6.65-1.86,2.45.75,7.1.75,7.1,0,0-4.82-1.68-7.52-1.18-2.66.5-9.2,6.82-9.2,6.82"/>
      </g>
    </g>
  </g>
</svg>