<?xml version="1.0" encoding="UTF-8"?>
<svg id="Warstwa_2" data-name="Warstwa 2" xmlns="http://www.w3.org/2000/svg" viewBox="0 0 242.49 65.24">
  <defs>
    <style>
      .cls-1 {
        fill: #1d1d1b;
      }

      .cls-2 {
        fill: #fff;
      }

      .cls-3 {
        fill: #b61f2b;
      }

      .cls-4 {
        fill: #878787;
      }
    </style>
  </defs>
  <g id="Warstwa_5" data-name="Warstwa 5">
    <g>
      <g>
        <path class="cls-1" d="M162.28,38.96c-.55.1-.98.2-1.26.3l.28,1.85c.28-.1.64-.19,1.08-.26.44-.07.92-.11,1.45-.11.39,0,.71.05.97.15.26.1.47.24.62.43.16.18.27.39.33.63.06.24.09.49.09.76v.38c-.31-.07-.61-.13-.89-.16s-.54-.05-.79-.05c-.54,0-1.06.05-1.56.16-.5.11-.93.28-1.31.53-.38.25-.68.56-.9.95-.22.39-.33.87-.33,1.43s.1,1.09.29,1.49c.19.4.47.73.81.98.35.25.76.43,1.26.55.49.11,1.03.17,1.62.17.89,0,1.69-.05,2.41-.16.71-.11,1.24-.2,1.59-.27v-5.98c0-.58-.07-1.11-.2-1.59-.13-.48-.35-.9-.66-1.24-.31-.34-.72-.61-1.24-.79-.52-.19-1.15-.28-1.91-.28-.63,0-1.22.05-1.77.15M162.86,47.01c-.34-.21-.51-.58-.51-1.12,0-.28.06-.51.19-.69.13-.18.29-.32.5-.42.21-.1.44-.17.7-.21.26-.04.51-.06.76-.06.29,0,.55.02.79.06.24.04.42.08.55.11v2.53c-.37.08-.9.11-1.6.11-.58,0-1.04-.1-1.38-.31M152.91,34.28l-2.28.38v14.27h2.28v-4.53c.34.25.69.56,1.04.92.35.36.7.74,1.04,1.14.34.4.66.82.95,1.25.3.43.56.84.78,1.23h2.64c-.23-.43-.51-.89-.85-1.4-.34-.5-.7-1.01-1.09-1.51-.39-.5-.79-.98-1.2-1.43-.42-.45-.81-.83-1.19-1.14.7-.72,1.4-1.45,2.1-2.21.7-.76,1.36-1.48,1.99-2.19h-2.7c-.2.24-.44.52-.73.84-.28.32-.58.65-.9,1-.31.35-.64.69-.96,1.04-.33.35-.64.67-.92.97v-8.63ZM143.09,47.1c-.47-.13-.88-.26-1.22-.4l-.4,1.91c.21.09.59.2,1.11.35.53.14,1.23.22,2.09.22,1.3,0,2.29-.24,2.99-.73.7-.49,1.05-1.2,1.05-2.14,0-.44-.06-.82-.17-1.13-.11-.31-.29-.59-.54-.84-.24-.25-.56-.47-.93-.66s-.84-.39-1.38-.59c-.33-.11-.61-.22-.83-.33-.23-.11-.41-.21-.55-.32-.14-.11-.24-.22-.29-.35-.06-.13-.09-.27-.09-.43,0-.33.15-.57.43-.73.29-.16.67-.24,1.13-.24.52,0,.97.05,1.36.14.39.09.71.2.96.31l.42-1.85c-.27-.1-.66-.2-1.19-.31-.53-.11-1.08-.16-1.66-.16-1.14,0-2.05.26-2.72.78-.67.52-1,1.24-1,2.14,0,.47.07.86.22,1.18.14.32.34.59.59.82.25.23.55.42.9.59.34.17.73.33,1.14.48.68.25,1.17.48,1.46.7.3.21.44.48.44.81,0,.35-.14.6-.42.75-.28.15-.72.22-1.32.22s-1.14-.06-1.61-.19M140.11,47.23c-.3-.04-.55-.09-.75-.16-.19-.07-.35-.17-.46-.3-.11-.13-.19-.29-.24-.48-.04-.19-.07-.42-.07-.7v-11.3l-2.28.38v11.36c0,.49.05.93.16,1.31.11.39.29.71.56.96.27.26.62.46,1.07.59.45.14,1.01.21,1.69.23l.32-1.89ZM131.33,46.34c-.42.58-1.01.87-1.77.87s-1.34-.29-1.77-.87c-.42-.58-.63-1.37-.63-2.36s.21-1.76.63-2.33c.42-.57,1.01-.86,1.77-.86s1.34.29,1.77.86c.42.57.63,1.35.63,2.33s-.21,1.78-.63,2.36M133.96,41.86c-.23-.64-.56-1.18-.97-1.63-.42-.45-.91-.8-1.5-1.05-.59-.25-1.23-.37-1.92-.37s-1.33.12-1.91.37c-.58.25-1.08.59-1.5,1.05-.42.45-.75,1-.98,1.63-.23.64-.35,1.34-.35,2.12s.12,1.49.35,2.13c.23.64.56,1.19.97,1.64.42.45.91.8,1.49,1.06.58.25,1.22.38,1.93.38s1.35-.13,1.93-.38c.58-.25,1.08-.6,1.5-1.06.42-.45.74-1,.96-1.64.23-.64.34-1.35.34-2.13s-.12-1.49-.35-2.12M119.32,37.88c.4.07.74.19,1.03.35.29.16.51.39.68.68.16.29.24.65.24,1.08,0,.89-.31,1.5-.92,1.82-.62.32-1.5.48-2.64.48h-1.15v-4.45c.39-.04.89-.06,1.49-.06.45,0,.88.03,1.27.1M116.02,35.78c-.67.04-1.29.13-1.84.25v12.89h2.38v-4.6h1.19c.96,0,1.81-.08,2.55-.25.74-.16,1.37-.42,1.89-.77.52-.34.91-.79,1.18-1.34.27-.55.41-1.2.41-1.97,0-1.47-.51-2.55-1.52-3.25-1.01-.69-2.47-1.04-4.37-1.04-.56,0-1.19.02-1.86.07"/>
        <path class="cls-1" d="M236.71,17.22c-.55.1-.98.2-1.26.3l.28,1.85c.28-.1.64-.19,1.08-.27.44-.07.92-.11,1.45-.11.39,0,.71.05.97.15.26.1.47.24.62.42s.27.39.33.63c.06.24.09.49.09.75v.38c-.32-.07-.61-.13-.89-.16-.28-.03-.54-.05-.79-.05-.54,0-1.06.05-1.56.16-.5.11-.93.28-1.31.53-.38.25-.68.56-.9.95-.22.39-.33.87-.33,1.43s.1,1.09.29,1.49c.19.4.47.73.81.98.35.25.76.43,1.26.55.49.11,1.03.17,1.62.17.89,0,1.69-.05,2.41-.16.71-.11,1.24-.2,1.59-.27v-5.98c0-.58-.07-1.11-.2-1.6-.13-.48-.35-.9-.66-1.24-.31-.34-.72-.6-1.24-.79-.52-.19-1.15-.28-1.91-.28-.63,0-1.22.05-1.77.15M237.29,25.27c-.34-.21-.51-.58-.51-1.12,0-.28.06-.51.19-.69.13-.18.29-.32.5-.42.21-.1.44-.17.7-.21.26-.04.51-.06.76-.06.29,0,.55.02.79.06.24.04.42.08.55.11v2.53c-.37.08-.9.11-1.6.11-.58,0-1.04-.1-1.38-.31M227.25,23.26c0,.65.06,1.24.17,1.75.11.51.31.94.59,1.3.28.36.65.63,1.12.82.47.19,1.06.28,1.76.28.58,0,1.08-.06,1.51-.18.43-.12.77-.24,1.04-.35l-.38-1.81c-.19.07-.44.16-.76.25-.32.09-.69.13-1.1.13-.6,0-1.03-.17-1.28-.51-.25-.34-.38-.91-.38-1.7v-4.02h3.51v-1.91h-3.51v-2.98l-2.28.38v8.55ZM224.54,13.39c-.28-.25-.6-.38-.98-.38s-.72.13-1,.38c-.28.25-.42.6-.42,1.04s.14.77.42,1.02c.28.25.61.38,1,.38s.71-.13.98-.38c.28-.25.42-.59.42-1.02s-.14-.79-.42-1.04M224.72,17.31h-2.28v9.87h2.28v-9.87ZM220.58,25.49c-.3-.04-.55-.09-.75-.16-.19-.07-.35-.17-.46-.3-.11-.13-.19-.29-.24-.48-.04-.19-.07-.42-.07-.7v-11.31l-2.28.38v11.36c0,.49.05.93.16,1.31.11.38.29.7.56.96.27.26.62.46,1.07.59.45.14,1.01.21,1.69.23l.32-1.89ZM211.77,24.6c-.42.58-1.01.87-1.76.87s-1.34-.29-1.77-.87c-.42-.58-.63-1.37-.63-2.36s.21-1.76.63-2.33c.42-.57,1.01-.86,1.77-.86s1.34.29,1.76.86c.42.57.63,1.35.63,2.33s-.21,1.78-.63,2.36M214.39,20.12c-.23-.64-.56-1.18-.97-1.63-.42-.45-.92-.8-1.5-1.05-.59-.25-1.22-.37-1.92-.37s-1.33.12-1.91.37c-.58.25-1.08.59-1.5,1.05-.42.45-.75,1-.98,1.63-.23.64-.35,1.34-.35,2.12s.12,1.49.35,2.13c.23.64.56,1.19.97,1.64.42.45.91.8,1.49,1.06.58.25,1.22.38,1.93.38s1.35-.13,1.93-.38c.59-.25,1.09-.6,1.5-1.06.42-.45.74-1,.96-1.64.23-.64.34-1.35.34-2.13s-.12-1.49-.35-2.12M203.32,20.12c-.23-.64-.57-1.18-1-1.62-.43-.45-.96-.79-1.58-1.03-.62-.24-1.32-.36-2.09-.36s-1.47.06-2.15.17c-.68.11-1.25.23-1.72.36v13.04h2.28v-3.83c.25.14.57.27.96.38.39.11.82.17,1.28.17.69,0,1.31-.13,1.86-.38.55-.25,1-.6,1.37-1.06.37-.45.65-.99.84-1.62.19-.63.29-1.32.29-2.08,0-.79-.12-1.51-.35-2.14M200.76,24.58c-.39.57-.99.85-1.82.85-.38,0-.73-.06-1.07-.18-.33-.12-.6-.25-.8-.39v-5.64c.23-.06.46-.1.69-.12.23-.02.46-.03.67-.03,1.02,0,1.76.28,2.22.85.46.57.69,1.36.69,2.38,0,.96-.19,1.72-.58,2.28M187.25,25.36c-.47-.13-.88-.26-1.22-.4l-.4,1.91c.21.09.59.2,1.11.35.53.15,1.23.22,2.09.22,1.3,0,2.29-.24,2.99-.73.7-.48,1.05-1.2,1.05-2.14,0-.44-.06-.82-.17-1.13-.11-.31-.29-.59-.54-.84-.25-.24-.56-.47-.93-.66-.38-.19-.84-.39-1.38-.59-.33-.11-.6-.22-.83-.33-.23-.11-.41-.21-.55-.32-.14-.11-.24-.22-.29-.35-.06-.13-.09-.27-.09-.43,0-.33.15-.57.43-.73.29-.16.67-.24,1.13-.24.52,0,.97.05,1.36.14.39.09.71.2.96.31l.42-1.85c-.26-.1-.66-.2-1.19-.31-.53-.11-1.08-.16-1.66-.16-1.14,0-2.05.26-2.72.78-.67.52-1,1.24-1,2.14,0,.47.07.86.22,1.18.14.32.34.59.59.82.25.23.55.42.9.59.35.17.73.33,1.14.48.68.25,1.17.49,1.46.7.3.21.44.49.44.81,0,.35-.14.6-.42.75-.28.14-.72.22-1.32.22s-1.14-.06-1.61-.19M181.32,24.6c-.42.58-1.01.87-1.77.87s-1.34-.29-1.76-.87c-.42-.58-.63-1.37-.63-2.36s.21-1.76.63-2.33c.42-.57,1.01-.86,1.76-.86s1.34.29,1.77.86c.42.57.63,1.35.63,2.33s-.21,1.78-.63,2.36M183.94,20.12c-.23-.64-.56-1.18-.97-1.63-.42-.45-.92-.8-1.5-1.05-.59-.25-1.22-.37-1.92-.37s-1.33.12-1.91.37-1.08.59-1.5,1.05c-.42.45-.75,1-.98,1.63-.23.64-.35,1.34-.35,2.12s.12,1.49.35,2.13c.23.64.56,1.19.97,1.64.42.45.91.8,1.49,1.06.58.25,1.22.38,1.92.38s1.35-.13,1.93-.38c.59-.25,1.08-.6,1.5-1.06.42-.45.74-1,.96-1.64.23-.64.34-1.35.34-2.13s-.12-1.49-.35-2.12M172.88,20.12c-.23-.64-.57-1.18-1-1.62-.43-.45-.96-.79-1.58-1.03-.62-.24-1.32-.36-2.09-.36s-1.47.06-2.15.17c-.68.11-1.25.23-1.72.36v13.04h2.28v-3.83c.25.14.57.27.96.38.39.11.82.17,1.28.17.69,0,1.31-.13,1.86-.38.55-.25,1-.6,1.37-1.06.37-.45.65-.99.84-1.62.19-.63.29-1.32.29-2.08,0-.79-.12-1.51-.35-2.14M170.31,24.58c-.38.57-.99.85-1.82.85-.38,0-.73-.06-1.07-.18-.33-.12-.6-.25-.8-.39v-5.64c.23-.06.46-.1.69-.12.23-.02.46-.03.67-.03,1.02,0,1.76.28,2.22.85.46.57.69,1.36.69,2.38,0,.96-.19,1.72-.58,2.28M162.3,17.31h-7.49v1.91h4.55c-.34.4-.73.87-1.16,1.42-.43.54-.87,1.11-1.31,1.71-.44.6-.87,1.19-1.28,1.78s-.76,1.14-1.04,1.64v1.41h7.85v-1.91h-5.1c.38-.58.8-1.19,1.27-1.82.47-.63.94-1.24,1.41-1.83.46-.58.9-1.12,1.31-1.59.41-.48.74-.85.99-1.11v-1.6ZM145.82,24.33c.2.64.51,1.18.92,1.64.41.46.92.82,1.55,1.08s1.36.39,2.2.39c.54,0,1.07-.05,1.57-.15.51-.1.89-.21,1.14-.34l-.32-1.89c-.28.11-.6.21-.98.28-.38.08-.76.11-1.15.11-1.04,0-1.79-.29-2.23-.86-.44-.57-.66-1.35-.66-2.33s.23-1.81.7-2.37c.47-.56,1.15-.84,2.04-.84.38,0,.73.04,1.07.11.33.08.63.17.9.28l.49-1.87c-.83-.34-1.71-.51-2.64-.51-.76,0-1.43.13-2.04.4-.6.26-1.12.63-1.54,1.09-.42.47-.74,1.02-.97,1.65-.23.64-.34,1.32-.34,2.05s.1,1.43.3,2.07M137.37,21.28c.04-.29.11-.57.21-.85.1-.28.24-.52.42-.74.18-.21.41-.39.67-.52.27-.13.57-.2.93-.2s.63.06.88.18c.24.12.45.28.62.49.17.21.3.45.39.74.09.28.13.58.13.9h-4.25ZM135.29,24.35c.2.62.51,1.16.92,1.62.42.46.94.82,1.59,1.08.64.26,1.4.39,2.27.39.34,0,.67-.02,1-.06.33-.04.63-.09.92-.14.28-.06.53-.12.76-.19.22-.07.39-.14.52-.2l-.3-1.87c-.27.11-.63.22-1.09.32-.46.1-.96.15-1.52.15-.94,0-1.66-.22-2.16-.65-.5-.43-.78-1.05-.84-1.84h6.51c.01-.13.02-.27.03-.42,0-.16.01-.3.01-.42,0-1.67-.38-2.93-1.14-3.77-.76-.84-1.82-1.26-3.18-1.26-.58,0-1.14.11-1.7.33-.55.22-1.04.55-1.47.98-.43.43-.77.98-1.03,1.63-.26.65-.39,1.42-.39,2.28,0,.74.1,1.42.3,2.05M133.68,17.31h-7.49v1.91h4.55c-.34.4-.73.87-1.16,1.42-.43.54-.87,1.11-1.31,1.71-.44.6-.87,1.19-1.28,1.78-.41.59-.76,1.14-1.04,1.64v1.41h7.85v-1.91h-5.1c.38-.58.8-1.19,1.27-1.82.47-.63.94-1.24,1.41-1.83.47-.58.9-1.12,1.31-1.59.41-.48.74-.85.99-1.11v-1.6ZM119.23,16.13c.39.07.73.19,1.01.35.28.16.5.38.65.66.15.28.23.62.23,1.02,0,.43-.08.78-.23,1.06-.15.28-.37.5-.67.66-.3.16-.66.28-1.1.34-.44.06-.95.09-1.53.09h-1.04v-4.23c.43-.04.89-.06,1.4-.06.47,0,.89.04,1.28.1M116.02,14.04c-.65.04-1.27.13-1.85.25v12.89h2.38v-4.94h1.51c.13,0,.28,0,.45-.02.24.3.5.65.77,1.03.28.38.56.79.84,1.23.28.43.56.88.84,1.34.28.46.53.92.77,1.37h2.66c-.23-.49-.48-.99-.77-1.5-.29-.51-.59-1.01-.91-1.49-.31-.48-.62-.93-.92-1.35-.3-.42-.57-.77-.81-1.06,1.75-.63,2.62-1.83,2.62-3.6,0-1.42-.5-2.48-1.5-3.17-1-.69-2.44-1.04-4.33-1.04-.52,0-1.1.02-1.76.07"/>
      </g>
      <rect class="cls-2" x=".13" y=".13" width="97.6" height="32.62"/>
      <rect class="cls-3" x=".13" y="32.62" width="97.6" height="32.49"/>
      <path class="cls-4" d="M97.86,0H0v65.24h97.86V0ZM97.56,64.94H.31V.31h97.25v64.63Z"/>
    </g>
  </g>
</svg>