<?xml version="1.0" encoding="UTF-8"?>
<svg id="Warstwa_2" data-name="Warstwa 2" xmlns="http://www.w3.org/2000/svg" viewBox="0 0 229.63 64.91">
  <defs>
    <style>
      .cls-1 {
        fill: #1d1d1b;
      }

      .cls-1, .cls-2 {
        fill-rule: evenodd;
      }

      .cls-2 {
        fill: #e34514;
      }
    </style>
  </defs>
  <g id="Warstwa_5" data-name="Warstwa 5">
    <g>
      <path class="cls-2" d="M.08,40.84c.12-2.75,1.38-4.77,3.91-5.91,6.13-2.77,12.27-5.51,18.41-8.26,6.29-2.82,12.58-5.65,18.87-8.46,2.28-1.02,4.49-.84,6.51.63,3.96,2.87,3.32,8.9-1.16,10.96-2.84,1.3-5.7,2.56-8.55,3.84-9.57,4.3-19.15,8.59-28.72,12.89-1.87.84-3.75.94-5.6.04-2.36-1.15-3.53-3.11-3.66-5.73Z"/>
      <path class="cls-1" d="M144.04,13.13V.74c1.86-.07,3.69-.03,5.55-.03v27.67h-6.41c-1.47-4.31-2.95-8.66-4.43-13-.05,0-.09,0-.14.01-.04,2.15-.01,4.29-.02,6.44,0,2.17,0,4.34,0,6.55h-5.48c-.14-.53-.2-26.24-.05-27.66,2.19-.04,4.4-.01,6.63-.02,1.41,4.19,2.8,8.32,4.19,12.45.05,0,.11-.01.16-.02Z"/>
      <path class="cls-1" d="M113.07,64.17v-27.72h.66c2.41,0,4.83.03,7.24,0,4.3-.07,8.3,3.51,8.02,8.48-.08,1.43-.52,2.76-1.35,3.95-.12.17-.24.35-.37.54.18.22.35.41.51.62,3.9,4.81,1.58,12.71-5.09,14.04-.51.1-1.04.15-1.57.15-2.51.02-5.02,0-7.53,0-.16,0-.32-.03-.53-.05ZM118.66,58.57c.96,0,1.88.03,2.8,0,1.29-.06,2.45-1.22,2.59-2.78.12-1.43-.67-2.73-2-3.2-.66-.24-2.65-.29-3.39-.08v6.08ZM118.66,46.79c.84,0,1.65.01,2.45,0,1.18-.02,2.05-.8,2.26-2,.2-1.07-.43-2.19-1.47-2.6-.11-.04-.22-.09-.34-.11-.97-.12-1.93-.04-2.91-.06v4.76Z"/>
      <path class="cls-1" d="M223.71,28.4c-1.02-2.79-2.02-5.52-3.02-8.26h-2.24c-.11,1.41-.04,2.78-.05,4.15-.01,1.36,0,2.71,0,4.1h-5.51c-.15-.51-.2-26.39-.06-27.61.09-.02.2-.07.31-.07,2.39,0,4.78-.04,7.17.02,3.77.1,7.62,2.78,8.75,7.06.99,3.73,0,6.98-2.68,9.73-.16.17-.36.3-.56.46,1.28,3.5,2.52,6.93,3.79,10.41h-5.91ZM218.43,14.53c.54,0,1.01,0,1.48,0,.97,0,1.82-.36,2.54-1,1.44-1.28,1.82-3.4.89-5.09-.87-1.58-2.5-2.51-4.91-2.03v8.12Z"/>
      <path class="cls-1" d="M93.11.76c.14-.02.23-.05.33-.05,2.39,0,4.78-.04,7.17.03,3.85.11,7.64,2.88,8.74,7.07.94,3.58.06,6.75-2.44,9.47-.23.24-.47.47-.78.76,1.24,3.42,2.49,6.86,3.77,10.35h-5.91c-1.01-2.77-2.02-5.51-3.03-8.27h-2.28c-.06.92-.02,1.82-.03,2.71,0,.93,0,1.86,0,2.8v2.75h-5.54V.76ZM98.7,6.32v8.21c.55,0,1.04,0,1.54,0,.19,0,.38,0,.57-.05,1.68-.32,3.03-1.74,3.25-3.39.25-1.87-.6-3.54-2.19-4.37-1.01-.53-2.06-.44-3.18-.41Z"/>
      <path class="cls-1" d="M73.14,64.17v-27.71c1.82-.02,3.64,0,5.55-.01v11.02h5.5v-10.98h5.56v27.69h-5.52c-.06-.92-.02-1.84-.03-2.77,0-.91,0-1.82,0-2.72v-5.54h-5.46c-.07.91-.02,1.83-.03,2.75,0,.91,0,1.82,0,2.72v5.56h-5.57Z"/>
      <path class="cls-1" d="M117.14.75h8.38c1.66,9.22,3.31,18.41,4.98,27.65h-5.71c-.24-1.34-.47-2.67-.72-4.08-1.8-.07-3.59-.02-5.43-.04-.28,1.41-.54,2.76-.81,4.12h-5.63c1.65-9.24,3.29-18.43,4.94-27.65ZM121.39,9.39s-.09.01-.13.02c-.55,3.06-1.11,6.13-1.67,9.23h3.47c-.56-3.12-1.12-6.19-1.67-9.25Z"/>
      <path class="cls-1" d="M192.89.75h16.61v5.53h-11.02v5.49h8.19v5.58c-2.7.07-5.41,0-8.11.04-.16.51-.21,4.22-.07,5.42.88.09,1.78.03,2.68.04.93.01,1.86,0,2.8,0h5.43c.19.52.23,4.59.07,5.54h-16.57V.75Z"/>
      <path class="cls-1" d="M93.06,36.44h5.56c.01.32.03.6.03.87,0,6.24,0,12.47,0,18.71,0,.36.02.72.08,1.07.26,1.39,1.46,2.26,2.93,2.16,1.28-.09,2.33-1.17,2.42-2.5.02-.26.01-.53.01-.79,0-6.19,0-12.38,0-18.57v-.95c1.87,0,3.69-.01,5.55,0,.02.27.04.48.04.69,0,6.5.01,13,0,19.5,0,3.88-2.7,7.2-6.48,8.06-4.39.99-8.84-1.76-9.88-6.14-.16-.69-.25-1.42-.26-2.13-.02-6.4-.01-12.81-.01-19.21v-.79Z"/>
      <path class="cls-1" d="M169.51,9.01h-5.62c0-.34,0-.65,0-.95-.05-1.44-1.05-2.45-2.44-2.47-1.37-.01-2.51,1.05-2.6,2.44-.06.98.25,1.82,1.05,2.38.79.56,1.66,1.03,2.5,1.51,1.09.63,2.24,1.17,3.29,1.87,1.74,1.16,3.02,2.72,3.52,4.8,1.27,5.22-1.83,9.31-5.98,10.32-5.47,1.32-10.66-3.12-10.11-8.75h5.54c0,.3,0,.58,0,.86.05,1.43,1.18,2.53,2.59,2.53,1.49,0,2.55-1.05,2.64-2.54.06-1.02-.29-1.85-1.13-2.4-.77-.51-1.59-.97-2.42-1.38-1.28-.64-2.56-1.28-3.7-2.16-3.78-2.88-4.1-7.53-2.55-10.53C155.68,1.47,158.25-.04,161.7,0c3.47.05,6.95,2.53,7.67,6.67.13.74.09,1.52.14,2.34Z"/>
      <path class="cls-1" d="M189.51.75v5.53h-10.9c-.15.57-.19,4.35-.07,5.48h8.17v5.57c-.66.09-1.35.03-2.03.04-.67,0-1.34,0-2.01,0h-4.19c-.02.93,0,1.83,0,2.73,0,.93,0,1.86,0,2.8v5.49h-5.55V.75h16.57Z"/>
      <path class="cls-1" d="M78.7,6.3h-5.55c-.08-1.88-.01-3.7-.04-5.56h16.64c.01,1.83,0,3.65,0,5.54h-5.49v22.09h-5.55V6.3Z"/>
      <path class="cls-2" d="M43.98,47.19c-3.52,0-6.4-2.86-6.35-6.38.05-4.05,3.41-6.43,6.45-6.37,3.51.07,6.36,2.89,6.31,6.43-.05,3.86-3.24,6.41-6.41,6.32Z"/>
      <path class="cls-2" d="M6.37,17.73c3.54,0,6.38,2.83,6.38,6.37,0,3.54-2.84,6.42-6.37,6.39C2.57,30.46-.02,27.36,0,24.1c.02-3.55,2.82-6.37,6.37-6.38Z"/>
      <path class="cls-2" d="M43.93,13.64c-3.54.02-6.41-2.79-6.41-6.34,0-3.52,2.68-6.4,6.34-6.41,3.79-.01,6.38,2.96,6.41,6.34.04,3.53-2.81,6.38-6.35,6.4Z"/>
      <path class="cls-2" d="M43.92,64.01c-3.52-.05-6.34-2.89-6.29-6.39.05-3.64,2.87-6.39,6.47-6.37,3.54.02,6.37,3,6.3,6.55-.07,3.48-2.97,6.26-6.47,6.21Z"/>
      <path class="cls-2" d="M6.4,13.64C2.84,13.65.03,10.84,0,7.3-.03,4.12,2.42.91,6.35.9c3.98,0,6.4,3.2,6.4,6.35,0,3.54-2.81,6.38-6.35,6.39Z"/>
      <path class="cls-2" d="M.11,57.62c-.03-3.19,2.46-6.38,6.39-6.35,4.02.02,6.37,3.28,6.36,6.4-.02,3.53-2.86,6.37-6.4,6.35-3.56-.02-6.36-2.84-6.35-6.39Z"/>
    </g>
  </g>
</svg>