<?xml version="1.0" encoding="UTF-8"?>
<svg id="Warstwa_2" data-name="Warstwa 2" xmlns="http://www.w3.org/2000/svg" viewBox="0 0 296.85 65.24">
  <defs>
    <style>
      .cls-1 {
        fill: #164194;
      }

      .cls-2 {
        fill: #1d1d1b;
      }

      .cls-3 {
        fill: #ffed00;
      }
    </style>
  </defs>
  <g id="Warstwa_5" data-name="Warstwa 5">
    <g>
      <g>
        <path class="cls-2" d="M177.43,47.01c-.34-.21-.51-.58-.51-1.12,0-.28.06-.51.19-.69.12-.18.29-.32.5-.42.21-.1.44-.17.7-.21.26-.04.51-.06.76-.06.29,0,.55.02.79.06.24.04.42.08.55.11v2.53c-.37.07-.9.11-1.6.11-.58,0-1.04-.1-1.38-.31M176.84,38.96c-.55.1-.98.2-1.26.3l.28,1.85c.28-.1.64-.19,1.08-.26.44-.07.92-.11,1.45-.11.39,0,.71.05.97.15.26.1.47.24.62.43.16.18.27.39.33.63.06.24.1.49.1.76v.38c-.32-.07-.61-.13-.89-.16-.28-.03-.54-.05-.79-.05-.54,0-1.06.05-1.56.16-.5.11-.93.28-1.31.53-.38.25-.68.56-.9.95-.22.39-.33.86-.33,1.43s.1,1.09.29,1.49c.19.4.47.73.81.98.35.25.76.43,1.26.55.49.11,1.03.17,1.62.17.29,0,.57,0,.84-.02.27-.01.53-.03.78-.06-.25.19-.47.39-.64.6-.21.23-.39.47-.53.73-.14.26-.21.53-.21.82,0,.48.17.86.52,1.14.35.28.91.42,1.69.42.28,0,.56-.02.84-.07.28-.04.52-.1.73-.18l-.19-1.53c-.18.06-.34.1-.49.12-.15.02-.28.03-.38.03-.44,0-.66-.17-.66-.51,0-.16.05-.32.15-.47.1-.15.24-.31.42-.49.2-.21.4-.4.61-.56.21-.16.38-.3.52-.42v-5.98c0-.58-.07-1.11-.2-1.59-.13-.48-.35-.9-.66-1.24-.31-.34-.72-.6-1.24-.79-.52-.19-1.15-.28-1.91-.28-.63,0-1.22.05-1.77.15M167.42,34.28l-2.28.38v14.27h2.28v-4.53c.34.25.69.56,1.04.92s.7.74,1.04,1.14c.34.4.66.82.95,1.25.3.43.56.84.78,1.23h2.64c-.22-.43-.51-.89-.85-1.4-.34-.5-.7-1.01-1.09-1.51-.39-.5-.79-.98-1.2-1.43-.42-.45-.81-.83-1.19-1.14.7-.72,1.4-1.45,2.1-2.21.7-.76,1.36-1.48,1.99-2.19h-2.7c-.2.24-.45.52-.73.84-.28.32-.58.65-.9,1-.31.34-.63.69-.96,1.04-.33.35-.64.67-.92.97v-8.63ZM157.6,47.1c-.47-.13-.88-.26-1.22-.4l-.4,1.91c.21.09.58.2,1.11.35.53.14,1.23.22,2.09.22,1.3,0,2.29-.24,2.99-.73.7-.48,1.05-1.2,1.05-2.14,0-.44-.06-.82-.17-1.13-.11-.31-.29-.59-.54-.84-.24-.25-.56-.46-.93-.66-.38-.19-.84-.39-1.38-.59-.33-.11-.6-.22-.83-.33s-.41-.21-.55-.32c-.14-.11-.24-.22-.29-.35-.06-.13-.09-.27-.09-.43,0-.33.15-.57.43-.73.29-.16.67-.24,1.13-.24.52,0,.97.05,1.36.14.39.09.71.2.96.31l.42-1.85c-.27-.1-.66-.21-1.19-.31-.53-.11-1.08-.16-1.66-.16-1.14,0-2.05.26-2.72.78-.67.52-1,1.24-1,2.14,0,.47.07.86.22,1.18.15.32.34.59.59.82s.55.43.9.59c.34.17.73.33,1.14.48.68.25,1.17.48,1.46.7.3.21.44.48.44.81,0,.35-.14.6-.42.75-.28.15-.72.22-1.32.22s-1.14-.06-1.61-.19M153.89,35.13c-.28-.25-.6-.38-.98-.38s-.72.13-1,.38c-.28.25-.42.6-.42,1.04s.14.77.42,1.02c.28.25.61.38,1,.38s.71-.13.98-.38c.28-.25.42-.59.42-1.02s-.14-.79-.42-1.04M153.15,51.52c.61-.62.92-1.57.92-2.85v-9.61h-2.29v9.57c0,.62-.11,1.08-.32,1.39-.21.31-.58.46-1.11.46-.39,0-.72-.04-1-.13l-.3,1.87c.23.09.49.15.78.18.3.03.53.05.69.05,1.14,0,2.02-.31,2.63-.93M142.98,43.02c.04-.29.11-.57.21-.85.1-.28.24-.52.42-.74.18-.21.41-.39.67-.52.26-.13.57-.2.92-.2s.63.06.88.18c.25.12.45.28.62.49.17.21.3.45.39.74.09.28.13.58.13.9h-4.25ZM140.9,46.09c.2.62.51,1.16.92,1.62.42.46.94.82,1.59,1.07.64.26,1.4.39,2.26.39.34,0,.67-.02,1-.06.33-.04.63-.09.92-.14.28-.06.53-.12.76-.19.22-.07.39-.13.52-.2l-.3-1.87c-.26.11-.63.22-1.09.32-.46.1-.96.15-1.52.15-.94,0-1.66-.22-2.16-.65-.5-.43-.78-1.05-.84-1.84h6.51c.01-.13.02-.27.03-.43,0-.16,0-.3,0-.42,0-1.67-.38-2.93-1.14-3.77-.76-.84-1.82-1.26-3.18-1.26-.58,0-1.14.11-1.7.33-.55.22-1.05.55-1.47.98-.43.43-.77.98-1.03,1.63-.26.65-.39,1.42-.39,2.29,0,.74.1,1.43.3,2.05M138.66,41.86c-.23-.64-.57-1.18-1-1.62-.43-.45-.96-.79-1.58-1.03-.62-.24-1.31-.36-2.09-.36s-1.47.06-2.15.17c-.68.11-1.25.23-1.72.36v13.04h2.28v-3.83c.25.14.57.26.96.38.39.11.82.17,1.28.17.69,0,1.31-.13,1.86-.38.55-.25,1-.6,1.37-1.06.37-.45.64-.99.84-1.62.19-.63.29-1.32.29-2.08,0-.79-.12-1.51-.35-2.14M136.09,46.32c-.38.57-.99.85-1.82.85-.38,0-.73-.06-1.07-.18-.33-.12-.6-.25-.8-.39v-5.64c.23-.06.46-.1.69-.12.23-.02.46-.03.67-.03,1.02,0,1.76.28,2.22.85.46.56.69,1.36.69,2.38,0,.96-.19,1.72-.58,2.28M125.05,46.34c-.42.58-1.01.87-1.76.87s-1.34-.29-1.77-.87c-.42-.58-.63-1.37-.63-2.36s.21-1.76.63-2.33c.42-.57,1.01-.86,1.77-.86s1.34.29,1.76.86c.42.57.63,1.35.63,2.33s-.21,1.78-.63,2.36M127.68,41.86c-.23-.64-.56-1.18-.97-1.63-.42-.45-.92-.8-1.5-1.05-.59-.24-1.22-.37-1.92-.37s-1.33.12-1.91.37c-.58.25-1.08.59-1.5,1.05-.42.45-.75,1-.98,1.63-.23.64-.35,1.34-.35,2.12s.12,1.49.35,2.13c.23.64.56,1.19.97,1.64.42.45.91.8,1.49,1.06.58.25,1.22.38,1.93.38s1.35-.13,1.93-.38c.58-.25,1.08-.6,1.5-1.06.42-.45.74-1,.96-1.64.23-.64.34-1.35.34-2.13s-.12-1.49-.35-2.12M117.81,39.19c-.11-.04-.26-.08-.45-.12-.19-.04-.38-.08-.58-.11-.2-.03-.4-.06-.6-.07-.2-.02-.38-.03-.53-.03-.81,0-1.54.07-2.2.22-.66.15-1.21.3-1.65.46v9.4h2.28v-7.91c.11-.04.31-.08.59-.13.28-.05.55-.07.8-.07.44,0,.83.03,1.16.1.33.07.59.13.78.2l.4-1.92ZM109.2,39.06h-2.28v7.98c-.15.04-.38.07-.69.09-.31.03-.6.04-.88.04-.77,0-1.31-.23-1.61-.68-.31-.45-.46-1.21-.46-2.26v-5.17h-2.29v5.53c0,.67.07,1.28.21,1.84.14.56.37,1.04.69,1.44.32.4.75.72,1.28.94.53.23,1.2.34,1.99.34.84,0,1.62-.06,2.32-.18.7-.12,1.28-.24,1.72-.35v-9.57ZM99.35,48.93v-2.02h-6.47v-3.83h5.36v-1.98h-5.36v-3.23h6.02v-2.02h-8.4v13.08h8.85ZM76.49,43.02c.04-.29.11-.57.21-.85.1-.28.24-.52.42-.74.18-.21.41-.39.67-.52.27-.13.57-.2.93-.2s.63.06.88.18c.25.12.45.28.62.49.17.21.3.45.39.74.09.28.13.58.13.9h-4.25ZM74.41,46.09c.2.62.51,1.16.92,1.62.42.46.94.82,1.59,1.07.64.26,1.4.39,2.27.39h.24c.09,0,.17,0,.25-.02-.36.33-.66.66-.9,1-.23.34-.35.69-.35,1.06,0,.5.19.89.56,1.16.37.27.93.4,1.67.4.24,0,.51-.02.8-.06.3-.04.54-.1.75-.19l-.17-1.53c-.33.1-.62.15-.87.15-.44,0-.66-.17-.66-.51,0-.15.06-.32.19-.5.13-.18.28-.37.47-.56.19-.19.39-.37.6-.54.21-.17.42-.32.6-.46l-.3-1.87c-.26.11-.62.22-1.08.32-.46.1-.97.15-1.52.15-.94,0-1.66-.22-2.16-.65-.5-.43-.78-1.05-.84-1.84h6.51c.01-.13.02-.27.03-.43,0-.16,0-.3,0-.42,0-1.67-.38-2.93-1.14-3.77-.76-.84-1.82-1.26-3.18-1.26-.58,0-1.14.11-1.7.33-.55.22-1.04.55-1.47.98-.43.43-.77.98-1.03,1.63-.26.65-.39,1.42-.39,2.29,0,.74.1,1.43.3,2.05M71.82,35.13c-.28-.25-.6-.38-.98-.38s-.72.13-1,.38c-.28.25-.42.6-.42,1.04s.14.77.42,1.02c.28.25.61.38,1,.38s.7-.13.98-.38c.28-.25.42-.59.42-1.02s-.14-.79-.42-1.04M71.99,39.06h-2.28v9.87h2.28v-9.87ZM58.96,48.93h2.28v-7.96c.15-.03.38-.06.7-.09.31-.04.62-.06.91-.06.39,0,.72.05.99.16.27.11.48.28.64.51.16.23.27.53.34.91.07.37.1.82.1,1.35v5.19h2.28v-5.55c0-.67-.07-1.28-.2-1.84-.13-.56-.36-1.04-.68-1.43-.32-.4-.75-.7-1.29-.93-.54-.22-1.21-.33-2.02-.33-.86,0-1.64.06-2.34.17-.71.11-1.28.23-1.72.36v9.55ZM53.52,48.83c.65-.26,1.19-.62,1.61-1.09.42-.46.74-1.01.94-1.64.21-.63.31-1.32.31-2.08v-8.17h-2.4v7.95c0,.59-.07,1.1-.2,1.52-.13.42-.32.76-.57,1.03-.25.26-.54.46-.88.59-.34.13-.72.19-1.13.19s-.79-.06-1.12-.19c-.33-.13-.62-.32-.87-.59-.25-.26-.43-.61-.57-1.03-.13-.42-.2-.93-.2-1.52v-7.95h-2.4v8.17c0,.76.1,1.45.3,2.08.2.63.51,1.18.93,1.64.42.47.95.83,1.6,1.09.64.26,1.41.39,2.3.39s1.67-.13,2.32-.39"/>
        <path class="cls-2" d="M182.57,17.31h-7.49v1.91h4.55c-.34.4-.73.88-1.16,1.42-.43.54-.87,1.11-1.31,1.71-.44.6-.87,1.19-1.28,1.78-.42.59-.76,1.14-1.04,1.64v1.42h7.85v-1.91h-5.1c.38-.58.8-1.19,1.27-1.82.47-.64.94-1.25,1.41-1.83.47-.58.9-1.12,1.31-1.59.41-.48.74-.85.99-1.11v-1.6ZM167.15,21.28c.04-.29.11-.57.21-.85.1-.28.24-.52.43-.74.18-.21.41-.39.67-.52.26-.13.57-.2.92-.2s.63.06.88.18c.25.12.45.28.62.49.17.21.3.45.39.74.09.28.13.58.13.9h-4.25ZM165.07,24.34c.2.62.51,1.16.92,1.62.42.46.94.82,1.59,1.08.64.26,1.4.39,2.26.39.34,0,.67-.02,1-.06.33-.04.63-.08.92-.14.28-.06.53-.12.76-.19.22-.07.39-.13.52-.2l-.3-1.87c-.26.11-.63.22-1.08.32-.46.1-.97.15-1.52.15-.94,0-1.66-.22-2.16-.65-.5-.43-.78-1.05-.84-1.84h6.51c.01-.13.02-.27.03-.42,0-.16,0-.3,0-.43,0-1.67-.38-2.93-1.14-3.77-.76-.84-1.82-1.26-3.18-1.26-.58,0-1.14.11-1.7.33-.55.22-1.04.55-1.47.98-.43.43-.77.98-1.03,1.63-.26.65-.39,1.42-.39,2.28,0,.74.1,1.43.3,2.05M163.46,17.31h-7.49v1.91h4.55c-.34.4-.73.88-1.16,1.42-.43.54-.87,1.11-1.31,1.71-.44.6-.87,1.19-1.28,1.78-.42.59-.76,1.14-1.04,1.64v1.42h7.85v-1.91h-5.1c.38-.58.8-1.19,1.27-1.82.47-.64.94-1.25,1.41-1.83.46-.58.9-1.12,1.31-1.59.41-.48.74-.85.99-1.11v-1.6ZM154.77,17.45c-.11-.04-.27-.08-.45-.12-.19-.04-.38-.08-.58-.11-.2-.03-.4-.06-.6-.08-.2-.02-.38-.03-.53-.03-.8,0-1.54.07-2.2.22-.66.15-1.21.3-1.65.46v9.4h2.28v-7.91c.11-.04.31-.08.59-.13.28-.05.55-.07.8-.07.44,0,.83.03,1.16.1.33.07.59.13.78.2l.4-1.93ZM146.32,20.12c-.23-.63-.57-1.17-1-1.62-.43-.45-.96-.79-1.57-1.03-.62-.24-1.32-.36-2.09-.36s-1.47.06-2.15.17c-.68.11-1.25.23-1.72.36v13.04h2.28v-3.83c.25.14.57.26.96.38.39.11.82.17,1.28.17.69,0,1.31-.13,1.86-.38.55-.25,1-.6,1.37-1.06.37-.45.64-.99.84-1.62.19-.63.29-1.32.29-2.08,0-.79-.12-1.51-.35-2.14M143.75,24.58c-.38.57-.99.85-1.82.85-.38,0-.73-.06-1.07-.18-.33-.12-.6-.25-.8-.39v-5.64c.23-.06.46-.1.69-.12.23-.02.46-.03.67-.03,1.02,0,1.76.28,2.22.85.46.57.69,1.36.69,2.38,0,.96-.19,1.72-.58,2.28M124.31,21.28c.04-.29.11-.57.21-.85.1-.28.24-.52.42-.74.18-.21.41-.39.67-.52.27-.13.57-.2.92-.2s.63.06.88.18c.25.12.45.28.62.49.17.21.3.45.39.74.09.28.13.58.13.9h-4.25ZM122.24,24.34c.2.62.51,1.16.92,1.62.42.46.94.82,1.59,1.08.64.26,1.4.39,2.26.39.34,0,.67-.02,1-.06.33-.04.63-.08.92-.14.28-.06.53-.12.75-.19.22-.07.39-.13.52-.2l-.3-1.87c-.26.11-.62.22-1.08.32-.46.1-.97.15-1.52.15-.94,0-1.66-.22-2.16-.65-.5-.43-.78-1.05-.84-1.84h6.51c.01-.13.02-.27.03-.42,0-.16,0-.3,0-.43,0-1.67-.38-2.93-1.14-3.77-.76-.84-1.82-1.26-3.18-1.26-.58,0-1.14.11-1.7.33-.55.22-1.04.55-1.47.98-.43.43-.77.98-1.03,1.63-.26.65-.39,1.42-.39,2.28,0,.74.1,1.43.3,2.05M111.7,27.18h2.28v-7.97c.15-.02.38-.06.7-.09.31-.04.62-.06.91-.06.39,0,.72.05.99.16.27.11.48.28.64.51.16.23.27.53.34.91.07.37.1.82.1,1.35v5.19h2.28v-5.55c0-.67-.07-1.28-.2-1.84-.13-.56-.36-1.04-.68-1.43-.32-.4-.75-.7-1.29-.92-.54-.22-1.21-.33-2.02-.33-.86,0-1.64.06-2.34.17-.7.11-1.28.23-1.72.36v9.55ZM103.42,17.22c-.55.1-.98.2-1.26.3l.28,1.85c.28-.1.64-.19,1.08-.26.44-.07.92-.11,1.45-.11.39,0,.71.05.97.15.26.1.46.24.62.42.16.18.27.39.33.63.06.24.09.49.09.76v.38c-.31-.08-.61-.13-.89-.16-.28-.03-.54-.05-.79-.05-.54,0-1.06.05-1.56.16-.5.11-.93.28-1.31.53s-.68.56-.9.95c-.22.39-.33.87-.33,1.43s.1,1.09.29,1.49c.19.4.47.73.81.98.35.25.76.43,1.26.55.49.11,1.03.17,1.62.17.89,0,1.69-.05,2.41-.16.71-.11,1.24-.2,1.6-.27v-5.98c0-.58-.07-1.11-.2-1.59-.13-.48-.35-.9-.66-1.24-.31-.34-.72-.6-1.24-.79-.52-.19-1.15-.28-1.91-.28-.63,0-1.22.05-1.77.15M104,25.27c-.34-.21-.51-.58-.51-1.12,0-.28.06-.5.19-.69.13-.18.29-.32.5-.42.21-.1.44-.17.7-.21.26-.04.51-.06.77-.06.29,0,.55.02.79.06.24.04.42.08.55.11v2.53c-.36.08-.9.11-1.6.11-.58,0-1.04-.1-1.38-.31M94.33,24.21c.34,1.05.68,2.04,1.01,2.97h1.86c.27-.58.54-1.24.81-1.98.28-.74.55-1.53.83-2.38.28-.84.55-1.73.83-2.66.28-.93.55-1.88.81-2.85h-2.36c-.11.53-.25,1.1-.4,1.71-.15.61-.31,1.23-.48,1.87-.17.64-.34,1.26-.52,1.86-.18.6-.35,1.16-.51,1.66-.19-.58-.37-1.18-.56-1.79-.18-.62-.35-1.23-.51-1.85-.16-.62-.3-1.22-.44-1.8-.14-.58-.27-1.13-.38-1.65h-1.75c-.11.52-.24,1.07-.39,1.65-.15.59-.3,1.19-.46,1.8-.16.62-.34,1.23-.52,1.85-.18.62-.37,1.21-.56,1.79-.18-.5-.35-1.06-.53-1.66-.18-.6-.35-1.22-.51-1.86-.16-.64-.32-1.26-.47-1.87-.15-.61-.28-1.18-.4-1.71h-2.42c.26.97.53,1.92.81,2.85.28.93.55,1.82.83,2.66.28.84.55,1.63.83,2.38.28.74.54,1.4.79,1.98h1.88c.33-.93.66-1.92.99-2.97.33-1.05.64-2.13.93-3.24.29,1.11.61,2.19.95,3.24M82.58,24.6c-.42.58-1.01.87-1.77.87s-1.34-.29-1.76-.87c-.42-.58-.63-1.37-.63-2.36s.21-1.76.63-2.33c.42-.57,1.01-.86,1.76-.86s1.34.29,1.77.86c.42.57.63,1.35.63,2.33s-.21,1.78-.63,2.36M85.2,20.12c-.23-.63-.56-1.18-.97-1.63-.42-.45-.92-.8-1.5-1.05-.59-.25-1.22-.37-1.92-.37s-1.33.12-1.91.37-1.08.59-1.5,1.05c-.42.45-.75,1-.98,1.63-.23.64-.35,1.34-.35,2.12s.12,1.49.35,2.13c.23.64.56,1.19.97,1.64.42.45.91.8,1.49,1.06.58.25,1.22.38,1.93.38s1.35-.13,1.93-.38c.59-.25,1.08-.6,1.5-1.06.42-.45.74-1,.96-1.64.23-.64.34-1.35.34-2.13s-.12-1.49-.35-2.12M69.05,25.35c-.47-.13-.88-.26-1.22-.4l-.4,1.91c.21.09.58.2,1.11.35.53.15,1.23.22,2.09.22,1.3,0,2.29-.24,2.99-.73.7-.49,1.05-1.2,1.05-2.14,0-.44-.06-.82-.17-1.13-.11-.31-.29-.59-.54-.84-.25-.25-.56-.47-.93-.66s-.84-.39-1.38-.59c-.33-.11-.6-.22-.83-.33-.23-.11-.41-.21-.55-.32-.14-.11-.24-.22-.29-.35-.06-.13-.09-.27-.09-.43,0-.33.14-.57.43-.73.29-.16.67-.24,1.13-.24.52,0,.97.05,1.36.14.39.09.71.2.96.31l.41-1.85c-.26-.1-.66-.2-1.19-.31-.53-.11-1.08-.16-1.66-.16-1.14,0-2.05.26-2.72.78-.67.52-1,1.24-1,2.14,0,.46.07.86.22,1.18.15.32.34.59.59.82.25.23.55.42.9.59.35.17.73.33,1.14.48.68.25,1.17.48,1.46.7.3.21.44.48.44.81,0,.35-.14.6-.42.75-.28.14-.72.22-1.32.22s-1.14-.06-1.61-.19M57.38,27.18h2.28v-7.97c.15-.02.38-.06.7-.09.31-.04.62-.06.91-.06.39,0,.72.05.99.16.27.11.48.28.64.51.16.23.27.53.34.91.07.37.1.82.1,1.35v5.19h2.28v-5.55c0-.67-.07-1.28-.2-1.84-.13-.56-.36-1.04-.68-1.43-.32-.4-.75-.7-1.29-.92-.54-.22-1.21-.33-2.02-.33-.86,0-1.64.06-2.34.17-.71.11-1.28.23-1.72.36v9.55ZM49.09,17.22c-.55.1-.97.2-1.26.3l.28,1.85c.28-.1.63-.19,1.08-.26s.92-.11,1.45-.11c.39,0,.71.05.97.15.26.1.46.24.62.42.16.18.27.39.33.63.06.24.09.49.09.76v.38c-.31-.08-.61-.13-.89-.16-.28-.03-.54-.05-.79-.05-.54,0-1.06.05-1.56.16-.5.11-.93.28-1.31.53-.38.25-.68.56-.9.95-.22.39-.33.87-.33,1.43s.1,1.09.29,1.49c.19.4.46.73.81.98.35.25.76.43,1.25.55.49.11,1.03.17,1.62.17.89,0,1.7-.05,2.41-.16.71-.11,1.24-.2,1.59-.27v-5.98c0-.58-.07-1.11-.2-1.59-.13-.48-.35-.9-.66-1.24-.31-.34-.72-.6-1.24-.79-.52-.19-1.15-.28-1.91-.28-.63,0-1.22.05-1.77.15M49.67,25.27c-.34-.21-.51-.58-.51-1.12,0-.28.06-.5.19-.69.13-.18.29-.32.5-.42.21-.1.44-.17.7-.21.26-.04.51-.06.76-.06.29,0,.55.02.79.06s.42.08.55.11v2.53c-.36.08-.9.11-1.6.11-.58,0-1.04-.1-1.38-.31M36.83,27.18h2.28v-7.97c.15-.02.38-.06.7-.09.31-.04.62-.06.91-.06.39,0,.72.05.99.16.27.11.48.28.64.51.16.23.27.53.34.91.07.37.1.82.1,1.35v5.19h2.28v-5.55c0-.67-.07-1.28-.2-1.84-.13-.56-.36-1.04-.68-1.43-.32-.4-.75-.7-1.29-.92-.54-.22-1.21-.33-2.02-.33-.86,0-1.64.06-2.34.17-.7.11-1.28.23-1.72.36v9.55ZM25.25,13.61c-.67.72-1,1.72-1,3v10.57h2.28v-7.97h3.62v-1.91h-3.62v-.66c0-.64.14-1.16.42-1.57.28-.4.8-.6,1.56-.6.29,0,.56.03.8.07.25.05.46.11.63.17l.36-1.85c-.19-.07-.45-.15-.78-.23-.33-.07-.74-.11-1.22-.11-1.37,0-2.39.36-3.06,1.08M34,13.39c-.28-.25-.6-.38-.98-.38s-.72.13-1,.38c-.28.25-.42.6-.42,1.04s.14.77.42,1.02c.28.25.61.38,1,.38s.7-.13.98-.38c.28-.25.42-.59.42-1.02s-.14-.79-.42-1.04M34.15,17.31h-2.28v9.87h2.28v-9.87ZM19.33,24.6c-.42.58-1.01.87-1.76.87s-1.34-.29-1.77-.87c-.42-.58-.63-1.37-.63-2.36s.21-1.76.63-2.33c.42-.57,1.01-.86,1.77-.86s1.34.29,1.76.86c.42.57.63,1.35.63,2.33s-.21,1.78-.63,2.36M21.96,20.12c-.23-.63-.56-1.18-.97-1.63-.42-.45-.91-.8-1.5-1.05s-1.22-.37-1.92-.37-1.33.12-1.91.37c-.58.25-1.08.59-1.5,1.05-.42.45-.75,1-.98,1.63-.23.64-.35,1.34-.35,2.12s.12,1.49.35,2.13c.23.64.56,1.19.97,1.64.42.45.91.8,1.49,1.06.58.25,1.22.38,1.93.38s1.35-.13,1.93-.38c.59-.25,1.09-.6,1.5-1.06.42-.45.74-1,.96-1.64.23-.64.34-1.35.34-2.13s-.12-1.49-.35-2.12M10.57,17.64c-.35-.84-.85-1.53-1.5-2.08-.65-.55-1.43-.95-2.33-1.21-.91-.26-1.91-.39-3-.39-.53,0-1.13.02-1.81.06-.68.04-1.32.13-1.93.26v12.7c.6.14,1.24.23,1.91.27.67.04,1.26.07,1.79.07,1.11,0,2.12-.13,3.03-.4.91-.27,1.69-.69,2.34-1.25.65-.56,1.15-1.26,1.5-2.09s.53-1.82.53-2.95-.18-2.15-.53-2.99M2.38,16.09c.3-.04.8-.06,1.51-.06,1.61,0,2.8.4,3.57,1.19.77.79,1.15,1.93,1.15,3.42s-.39,2.6-1.18,3.41c-.79.81-1.98,1.22-3.58,1.22-.39,0-.7,0-.93-.01-.23,0-.41-.02-.55-.03v-9.13Z"/>
      </g>
      <g>
        <rect class="cls-1" x="198.99" width="97.86" height="65.24"/>
        <g>
          <polygon class="cls-3" points="247.92 7.77 248.72 10.23 251.3 10.23 249.21 11.75 250.01 14.21 247.92 12.69 245.83 14.21 246.63 11.75 244.54 10.23 247.12 10.23 247.92 7.77"/>
          <polygon class="cls-3" points="247.92 50.82 248.72 53.27 251.3 53.27 249.21 54.79 250.01 57.25 247.92 55.73 245.83 57.25 246.63 54.79 244.54 53.27 247.12 53.27 247.92 50.82"/>
          <polygon class="cls-3" points="226.57 29.2 227.36 31.65 229.95 31.65 227.86 33.17 228.66 35.63 226.57 34.11 224.48 35.63 225.27 33.17 223.18 31.65 225.77 31.65 226.57 29.2"/>
          <polygon class="cls-3" points="269.28 29.2 270.08 31.65 272.66 31.65 270.57 33.17 271.37 35.63 269.28 34.11 267.19 35.63 267.99 33.17 265.9 31.65 268.48 31.65 269.28 29.2"/>
          <polygon class="cls-3" points="258.56 10.73 259.36 13.19 261.94 13.19 259.85 14.71 260.65 17.16 258.56 15.64 256.47 17.16 257.27 14.71 255.17 13.19 257.76 13.19 258.56 10.73"/>
          <polygon class="cls-3" points="237.29 10.73 238.09 13.19 240.67 13.19 238.58 14.71 239.38 17.16 237.29 15.64 235.2 17.16 236 14.71 233.91 13.19 236.49 13.19 237.29 10.73"/>
          <polygon class="cls-3" points="258.56 47.68 259.36 50.14 261.94 50.14 259.85 51.65 260.65 54.11 258.56 52.59 256.47 54.11 257.27 51.65 255.17 50.14 257.76 50.14 258.56 47.68"/>
          <polygon class="cls-3" points="237.29 47.68 238.09 50.14 240.67 50.14 238.58 51.65 239.38 54.11 237.29 52.59 235.2 54.11 236 51.65 233.91 50.14 236.49 50.14 237.29 47.68"/>
          <polygon class="cls-3" points="266.39 18.45 267.18 20.91 269.77 20.91 267.68 22.42 268.48 24.88 266.39 23.36 264.3 24.88 265.09 22.42 263 20.91 265.59 20.91 266.39 18.45"/>
          <polygon class="cls-3" points="229.46 18.45 230.26 20.91 232.84 20.91 230.75 22.42 231.55 24.88 229.46 23.36 227.37 24.88 228.17 22.42 226.08 20.91 228.66 20.91 229.46 18.45"/>
          <polygon class="cls-3" points="266.39 39.83 267.18 42.29 269.77 42.29 267.68 43.8 268.48 46.26 266.39 44.74 264.3 46.26 265.09 43.8 263 42.29 265.59 42.29 266.39 39.83"/>
          <polygon class="cls-3" points="229.46 39.83 230.26 42.29 232.84 42.29 230.75 43.8 231.55 46.26 229.46 44.74 227.37 46.26 228.17 43.8 226.08 42.29 228.66 42.29 229.46 39.83"/>
        </g>
      </g>
    </g>
  </g>
</svg>