<?xml version="1.0" encoding="UTF-8"?>
<svg id="Warstwa_2" data-name="Warstwa 2" xmlns="http://www.w3.org/2000/svg" viewBox="0 0 12 12">
  <defs>
    <style>
      .cls-1 {
        fill: #fff;
      }
    </style>
  </defs>
  <g id="Warstwa_3" data-name="Warstwa 3">
    <path class="cls-1" d="M6,12c-3.31,0-6-2.69-6-6S2.69,0,6,0s6,2.69,6,6-2.69,6-6,6ZM6,1.09C3.29,1.09,1.09,3.29,1.09,6s2.2,4.91,4.91,4.91,4.91-2.2,4.91-4.91S8.71,1.09,6,1.09Z"/>
    <circle class="cls-1" cx="6" cy="3.1" r="1.55"/>
    <path class="cls-1" d="M6,5.69h0c.86,0,1.55.69,1.55,1.55v4.08h-3.1v-4.08c0-.86.69-1.55,1.55-1.55Z"/>
  </g>
</svg>