<?xml version="1.0" encoding="UTF-8"?>
<svg id="Warstwa_2" data-name="Warstwa 2" xmlns="http://www.w3.org/2000/svg" viewBox="0 0 13.79 12">
  <defs>
    <style>
      .cls-1 {
        fill: #fff;
      }
    </style>
  </defs>
  <g id="Warstwa_3" data-name="Warstwa 3">
    <g>
      <path class="cls-1" d="M9.05,1.62c-1.5,0-2.78.91-3.35,2.2h.84c.5-.87,1.43-1.46,2.5-1.46,1.6,0,2.91,1.3,2.91,2.91s-1.3,2.91-2.91,2.91c-1.06,0-1.98-.58-2.49-1.43h-.37c.02.09.02.17.02.26,0,.16-.03.31-.07.46.67.88,1.72,1.45,2.91,1.45,2.01,0,3.65-1.64,3.65-3.65s-1.64-3.65-3.65-3.65Z"/>
      <path class="cls-1" d="M8.84,6.74h-1.31c.39.4.92.64,1.52.64,1.17,0,2.12-.95,2.12-2.12s-.95-2.12-2.12-2.12c-.61,0-1.15.26-1.54.67h1.37c.81,0,1.46.66,1.46,1.46,0,.05,0,.09,0,.14-.07.74-.73,1.32-1.49,1.32Z"/>
    </g>
    <path class="cls-1" d="M4.71,11.35c.45,0,.86-.32.92-.76.06-.47-.25-.89-.67-.99.39-.09.68-.44.68-.86s-.29-.77-.68-.86c.39-.09.68-.44.68-.86,0-.39-.25-.72-.6-.84h3.8c.47,0,.88-.34.92-.8.05-.53-.37-.98-.89-.98H1.61C.72,4.39,0,5.1,0,5.99c0,0,0,0,0,.01,0,2.07.81,3.95,2.14,5.35h2.58Z"/>
    <path class="cls-1" d="M7.8,0C5.26,0,3.09,1.59,2.21,3.82h1.21c.81-1.61,2.46-2.73,4.38-2.73,2.71,0,4.91,2.2,4.91,4.91s-2.2,4.91-4.91,4.91c-.56,0-1.1-.11-1.6-.29,0,.01,0,.03,0,.04-.05.38-.26.7-.56.93.67.26,1.4.41,2.16.41,3.31,0,6-2.69,6-6S11.1,0,7.8,0Z"/>
  </g>
</svg>