<?xml version="1.0" encoding="UTF-8"?>
<svg id="Warstwa_2" data-name="Warstwa 2" xmlns="http://www.w3.org/2000/svg" viewBox="0 0 10.96 7.75">
  <defs>
    <style>
      .cls-1 {
        fill: #fff;
      }
    </style>
  </defs>
  <g id="Warstwa_3" data-name="Warstwa 3">
    <path class="cls-1" d="M7.38,5.42c.14.8-.07,1.1-.75,1.1-.13,0-.27-.02-.39.01-.1.03-.18.13-.26.2.02.04.04.08.05.12h.57c.15.61-.03.9-.57.9-1,0-2,.02-3-.01-.23,0-.46-.16-.69-.25-.02,0-.04-.03-.05-.04-.5-.56-1.11-.76-1.82-.67C.05,6.83,0,6.74,0,6.26,0,5.06,0,3.86,0,2.66c0-.44.06-.54.46-.5.77.08,1.43-.16,2.07-.61.75-.52,1.55-.96,2.32-1.46.23-.15.41-.13.62.05.37.31.76.59,1.15.88,0,.03-.01.06-.02.09-.26,0-.52-.03-.77.01-.12.02-.23.15-.34.23.12.08.23.23.35.23,1.42.02,2.83.01,4.25,0,.31,0,.62,0,.76.36.15.4.19.85-.03,1.22-.11.17-.38.3-.58.31-.82.03-1.65,0-2.47.02-.12,0-.32.08-.33.14-.03.29.2.16.33.19.06.01.13.01.23.02,0,.24.02.48,0,.71-.04.31-.23.49-.52.51-.21.01-.42,0-.63.01-.06,0-.11.1-.16.16.06.05.11.14.17.15.17.02.35,0,.54,0Z"/>
  </g>
</svg>