<?xml version="1.0" encoding="UTF-8"?>
<svg id="Warstwa_2" data-name="Warstwa 2" xmlns="http://www.w3.org/2000/svg" viewBox="0 0 80.81 61.95">
  <defs>
    <style>
      .cls-1 {
        fill: #FFFFFF;
      }
    </style>
  </defs>
  <g id="Warstwa_3" data-name="Warstwa 3">
    <g>
      <g>
        <path class="cls-1" d="M57.58,0c-9.53,0-17.72,5.77-21.3,13.99h5.37c3.21-5.51,9.11-9.26,15.93-9.26,10.2,0,18.5,8.3,18.5,18.5s-8.3,18.5-18.5,18.5c-6.76,0-12.62-3.68-15.85-9.11h-2.33c.1.55.15,1.11.15,1.68,0,1.02-.16,2-.47,2.92,4.25,5.6,10.94,9.23,18.5,9.23,12.81,0,23.23-10.42,23.23-23.23S70.39,0,57.58,0Z"/>
        <path class="cls-1" d="M56.27,32.62h-8.35c2.45,2.52,5.87,4.1,9.66,4.1,7.45,0,13.49-6.04,13.49-13.49s-6.04-13.49-13.49-13.49c-3.87,0-7.33,1.65-9.79,4.25h8.72c5.14,0,9.31,4.18,9.31,9.31,0,.3-.01.6-.04.9-.45,4.72-4.63,8.41-9.51,8.41Z"/>
      </g>
      <path class="cls-1" d="M10.22,61.95h19.78c2.87,0,5.46-2.03,5.85-4.87.41-3.02-1.56-5.64-4.3-6.29,2.49-.6,4.35-2.82,4.35-5.5s-1.86-4.9-4.35-5.5c2.49-.6,4.35-2.82,4.35-5.5,0-2.47-1.59-4.55-3.8-5.33h24.17c2.96,0,5.6-2.16,5.88-5.11.32-3.38-2.33-6.22-5.64-6.22H10.22c-5.65,0-10.22,4.58-10.22,10.22v23.87c0,5.65,4.58,10.22,10.22,10.22Z"/>
    </g>
  </g>
</svg>