<?xml version="1.0" encoding="UTF-8"?>
<svg id="Warstwa_2" data-name="Warstwa 2" xmlns="http://www.w3.org/2000/svg" viewBox="0 0 48.01 48.01">
  <defs>
    <style>
      .cls-1 {
        fill: #fff;
      }

      .cls-2 {
        fill: #f08050;
      }
    </style>
  </defs>
  <g id="Warstwa_3" data-name="Warstwa 3">
    <g>
      <circle class="cls-2" cx="24" cy="24" r="24"/>
      <path class="cls-1" d="M24,42.48c-10.19,0-18.47-8.29-18.47-18.47S13.82,5.53,24,5.53s18.47,8.29,18.47,18.47-8.29,18.47-18.47,18.47ZM24,8.88c-8.34,0-15.12,6.78-15.12,15.12s6.78,15.12,15.12,15.12,15.12-6.78,15.12-15.12-6.78-15.12-15.12-15.12Z"/>
      <path class="cls-1" d="M32.94,26.3h-8.94c-1.27,0-2.3-1.03-2.3-2.3v-11.77c0-1.27,1.03-2.3,2.3-2.3s2.3,1.03,2.3,2.3v9.48h6.64c1.27,0,2.3,1.03,2.3,2.3s-1.03,2.3-2.3,2.3Z"/>
    </g>
  </g>
</svg>