<?xml version="1.0" encoding="UTF-8"?>
<svg id="Warstwa_2" data-name="Warstwa 2" xmlns="http://www.w3.org/2000/svg" viewBox="0 0 48.01 48.01">
  <defs>
    <style>
      .cls-1 {
        fill: #fff;
      }

      .cls-2 {
        fill: #f08050;
      }

      .cls-3 {
        fill: #007c97;
      }
    </style>
  </defs>
  <g id="Warstwa_3" data-name="Warstwa 3">
    <g>
      <circle class="cls-2" cx="24" cy="24" r="24"/>
      <g>
        <path class="cls-3" d="M24.02,44.1c-3.06,0-5.99-.63-8.77-1.9-2.33-1.07-4.42-2.5-6.2-4.35-.59-.62-.7-1.38-.37-2.17.32-.78.94-1.21,1.78-1.27.61-.04,1.15.16,1.59.6,1.22,1.21,2.58,2.22,4.11,3.02,1.67.88,3.44,1.45,5.31,1.74,1.3.2,2.61.25,3.92.14,2.18-.18,4.25-.75,6.21-1.73,1.54-.77,2.93-1.75,4.16-2.95.34-.33.68-.63,1.15-.75.89-.24,1.86.14,2.33.94.48.81.36,1.84-.3,2.5-2.62,2.63-5.72,4.44-9.29,5.43-1.83.51-3.71.76-5.61.76Z"/>
        <path class="cls-3" d="M23.9,35.96c-.82-.01-1.74-.11-2.65-.31-2.25-.49-4.22-1.52-5.93-3.05-.39-.35-.78-.71-.95-1.24-.29-.9.05-1.87.85-2.39.78-.51,1.83-.43,2.51.21.65.62,1.34,1.17,2.13,1.6,1.54.82,3.18,1.16,4.92,1,2.13-.19,3.95-1.06,5.47-2.55.8-.78,2.09-.77,2.89.02.79.79.82,2.09.04,2.88-1.4,1.43-3.06,2.47-4.95,3.12-1.37.47-2.78.71-4.33.71Z"/>
        <path class="cls-3" d="M24.01,20.58c1.96,0,3.55,1.59,3.54,3.54,0,1.97-1.59,3.55-3.56,3.55-1.95,0-3.53-1.6-3.53-3.55,0-1.95,1.59-3.54,3.55-3.54Z"/>
      </g>
      <g>
        <path class="cls-1" d="M23.99,4.14c3.06,0,5.99.63,8.77,1.9,2.33,1.07,4.42,2.5,6.2,4.35.59.62.7,1.38.37,2.17-.32.78-.94,1.21-1.78,1.27-.61.04-1.15-.16-1.59-.6-1.22-1.21-2.58-2.22-4.11-3.02-1.67-.88-3.44-1.45-5.31-1.74-1.3-.2-2.61-.25-3.92-.14-2.18.18-4.25.75-6.21,1.73-1.54.77-2.93,1.75-4.16,2.95-.34.33-.68.63-1.15.75-.89.24-1.86-.14-2.33-.94-.48-.81-.36-1.84.3-2.5,2.62-2.63,5.72-4.44,9.29-5.43,1.83-.51,3.71-.76,5.61-.76Z"/>
        <path class="cls-1" d="M24.11,12.28c.82.01,1.74.11,2.65.31,2.25.49,4.22,1.52,5.93,3.05.39.35.78.71.95,1.24.29.9-.05,1.87-.85,2.39-.78.51-1.83.43-2.51-.21-.65-.62-1.34-1.17-2.13-1.6-1.54-.82-3.18-1.16-4.92-1-2.13.19-3.95,1.06-5.47,2.55-.8.78-2.09.77-2.89-.02-.79-.79-.82-2.09-.04-2.88,1.4-1.43,3.06-2.47,4.95-3.12,1.37-.47,2.78-.71,4.33-.71Z"/>
        <path class="cls-1" d="M23.99,27.66c-1.96,0-3.55-1.59-3.54-3.54,0-1.97,1.59-3.55,3.56-3.55,1.95,0,3.53,1.6,3.53,3.55,0,1.95-1.59,3.54-3.55,3.54Z"/>
      </g>
    </g>
  </g>
</svg>