<?xml version="1.0" encoding="UTF-8"?>
<svg id="Warstwa_2" data-name="Warstwa 2" xmlns="http://www.w3.org/2000/svg" viewBox="0 0 48.01 48.01">
  <defs>
    <style>
      .cls-1 {
        fill: #fff;
      }

      .cls-2 {
        fill: #f08050;
      }
    </style>
  </defs>
  <g id="Warstwa_3" data-name="Warstwa 3">
    <g>
      <circle class="cls-2" cx="24" cy="24" r="24"/>
      <g>
        <path class="cls-1" d="M21.93,20.27h-3.07c1.84-.74,3.15-2.54,3.15-4.66,0-2.78-2.25-5.03-5.03-5.03s-5.03,2.25-5.03,5.03c0,2.11,1.3,3.91,3.15,4.66h-3.07c-1.95,0-3.53,1.58-3.53,3.53v10.09c0,1.75,1.3,3.15,2.98,3.42v-12.51c0-.26.21-.48.48-.48s.48.21.48.48v12.63h9.09v-12.63c0-.26.21-.48.48-.48s.48.21.48.48v12.51c1.68-.28,2.98-1.67,2.98-3.42v-10.09c0-1.95-1.58-3.53-3.53-3.53Z"/>
        <path class="cls-1" d="M35.98,20.27h-3.07c1.84-.74,3.15-2.54,3.15-4.66,0-2.78-2.25-5.03-5.03-5.03s-5.03,2.25-5.03,5.03c0,2.11,1.3,3.91,3.15,4.66h-3.07c-1.95,0-3.53,1.58-3.53,3.53v10.09c0,1.75,1.3,3.15,2.98,3.42v-12.51c0-.26.21-.48.48-.48s.48.21.48.48v12.63h9.09v-12.63c0-.26.21-.48.48-.48s.48.21.48.48v12.51c1.68-.28,2.98-1.67,2.98-3.42v-10.09c0-1.95-1.58-3.53-3.53-3.53Z"/>
      </g>
    </g>
  </g>
</svg>